<mxfile host="app.diagrams.net" modified="2023-03-26T12:20:40.611Z" agent="Mozilla/5.0 (Windows NT 10.0; Win64; x64) AppleWebKit/537.36 (KHTML, like Gecko) Chrome/111.0.0.0 Safari/537.36" etag="tXwQbozIMuAlwg_I2Fm-" version="21.1.1" type="device">
  <diagram id="R2lEEEUBdFMjLlhIrx00" name="Page-1">
    <mxGraphModel dx="2015" dy="858" grid="0" gridSize="10" guides="1" tooltips="1" connect="1" arrows="1" fold="1" page="0" pageScale="1" pageWidth="850" pageHeight="1100" math="0" shadow="0" extFonts="Permanent Marker^https://fonts.googleapis.com/css?family=Permanent+Marker">
      <root>
        <mxCell id="0" />
        <mxCell id="1" parent="0" />
        <mxCell id="C-vyLk0tnHw3VtMMgP7b-2" value="Locations" style="shape=table;startSize=30;container=1;collapsible=1;childLayout=tableLayout;fixedRows=1;rowLines=0;fontStyle=1;align=center;resizeLast=1;fillColor=#1ba1e2;fontColor=#ffffff;strokeColor=#006EAF;" parent="1" vertex="1">
          <mxGeometry x="632" y="101" width="250" height="270" as="geometry" />
        </mxCell>
        <mxCell id="C-vyLk0tnHw3VtMMgP7b-3" value="" style="shape=partialRectangle;collapsible=0;dropTarget=0;pointerEvents=0;fillColor=none;points=[[0,0.5],[1,0.5]];portConstraint=eastwest;top=0;left=0;right=0;bottom=1;" parent="C-vyLk0tnHw3VtMMgP7b-2" vertex="1">
          <mxGeometry y="30" width="250" height="30" as="geometry" />
        </mxCell>
        <mxCell id="C-vyLk0tnHw3VtMMgP7b-4" value="PK" style="shape=partialRectangle;overflow=hidden;connectable=0;fillColor=#b1ddf0;top=0;left=0;bottom=0;right=0;fontStyle=1;strokeColor=#10739e;" parent="C-vyLk0tnHw3VtMMgP7b-3" vertex="1">
          <mxGeometry width="30" height="30" as="geometry">
            <mxRectangle width="30" height="30" as="alternateBounds" />
          </mxGeometry>
        </mxCell>
        <mxCell id="C-vyLk0tnHw3VtMMgP7b-5" value="location_id int NOT NULL " style="shape=partialRectangle;overflow=hidden;connectable=0;fillColor=#b1ddf0;top=0;left=0;bottom=0;right=0;align=left;spacingLeft=6;fontStyle=5;strokeColor=#10739e;" parent="C-vyLk0tnHw3VtMMgP7b-3" vertex="1">
          <mxGeometry x="30" width="220" height="30" as="geometry">
            <mxRectangle width="220" height="30" as="alternateBounds" />
          </mxGeometry>
        </mxCell>
        <mxCell id="C-vyLk0tnHw3VtMMgP7b-6" value="" style="shape=partialRectangle;collapsible=0;dropTarget=0;pointerEvents=0;fillColor=none;points=[[0,0.5],[1,0.5]];portConstraint=eastwest;top=0;left=0;right=0;bottom=0;" parent="C-vyLk0tnHw3VtMMgP7b-2" vertex="1">
          <mxGeometry y="60" width="250" height="30" as="geometry" />
        </mxCell>
        <mxCell id="C-vyLk0tnHw3VtMMgP7b-7" value="" style="shape=partialRectangle;overflow=hidden;connectable=0;fillColor=#b1ddf0;top=0;left=0;bottom=0;right=0;strokeColor=#10739e;" parent="C-vyLk0tnHw3VtMMgP7b-6" vertex="1">
          <mxGeometry width="30" height="30" as="geometry">
            <mxRectangle width="30" height="30" as="alternateBounds" />
          </mxGeometry>
        </mxCell>
        <mxCell id="C-vyLk0tnHw3VtMMgP7b-8" value="city varchar(150) NOT NULL" style="shape=partialRectangle;overflow=hidden;connectable=0;fillColor=#b1ddf0;top=0;left=0;bottom=0;right=0;align=left;spacingLeft=6;strokeColor=#10739e;" parent="C-vyLk0tnHw3VtMMgP7b-6" vertex="1">
          <mxGeometry x="30" width="220" height="30" as="geometry">
            <mxRectangle width="220" height="30" as="alternateBounds" />
          </mxGeometry>
        </mxCell>
        <mxCell id="C-vyLk0tnHw3VtMMgP7b-9" value="" style="shape=partialRectangle;collapsible=0;dropTarget=0;pointerEvents=0;fillColor=none;points=[[0,0.5],[1,0.5]];portConstraint=eastwest;top=0;left=0;right=0;bottom=0;" parent="C-vyLk0tnHw3VtMMgP7b-2" vertex="1">
          <mxGeometry y="90" width="250" height="30" as="geometry" />
        </mxCell>
        <mxCell id="C-vyLk0tnHw3VtMMgP7b-10" value="" style="shape=partialRectangle;overflow=hidden;connectable=0;fillColor=#b1ddf0;top=0;left=0;bottom=0;right=0;strokeColor=#10739e;" parent="C-vyLk0tnHw3VtMMgP7b-9" vertex="1">
          <mxGeometry width="30" height="30" as="geometry">
            <mxRectangle width="30" height="30" as="alternateBounds" />
          </mxGeometry>
        </mxCell>
        <mxCell id="C-vyLk0tnHw3VtMMgP7b-11" value="county varchar(250)" style="shape=partialRectangle;overflow=hidden;connectable=0;fillColor=#b1ddf0;top=0;left=0;bottom=0;right=0;align=left;spacingLeft=6;strokeColor=#10739e;" parent="C-vyLk0tnHw3VtMMgP7b-9" vertex="1">
          <mxGeometry x="30" width="220" height="30" as="geometry">
            <mxRectangle width="220" height="30" as="alternateBounds" />
          </mxGeometry>
        </mxCell>
        <mxCell id="I6zElXgZEDLd3gUoQ3DE-79" style="shape=partialRectangle;collapsible=0;dropTarget=0;pointerEvents=0;fillColor=none;points=[[0,0.5],[1,0.5]];portConstraint=eastwest;top=0;left=0;right=0;bottom=0;" parent="C-vyLk0tnHw3VtMMgP7b-2" vertex="1">
          <mxGeometry y="120" width="250" height="30" as="geometry" />
        </mxCell>
        <mxCell id="I6zElXgZEDLd3gUoQ3DE-80" style="shape=partialRectangle;overflow=hidden;connectable=0;fillColor=#b1ddf0;top=0;left=0;bottom=0;right=0;strokeColor=#10739e;" parent="I6zElXgZEDLd3gUoQ3DE-79" vertex="1">
          <mxGeometry width="30" height="30" as="geometry">
            <mxRectangle width="30" height="30" as="alternateBounds" />
          </mxGeometry>
        </mxCell>
        <mxCell id="I6zElXgZEDLd3gUoQ3DE-81" value="address varchar(500) NOT NULL" style="shape=partialRectangle;overflow=hidden;connectable=0;fillColor=#b1ddf0;top=0;left=0;bottom=0;right=0;align=left;spacingLeft=6;strokeColor=#10739e;" parent="I6zElXgZEDLd3gUoQ3DE-79" vertex="1">
          <mxGeometry x="30" width="220" height="30" as="geometry">
            <mxRectangle width="220" height="30" as="alternateBounds" />
          </mxGeometry>
        </mxCell>
        <mxCell id="I6zElXgZEDLd3gUoQ3DE-76" style="shape=partialRectangle;collapsible=0;dropTarget=0;pointerEvents=0;fillColor=none;points=[[0,0.5],[1,0.5]];portConstraint=eastwest;top=0;left=0;right=0;bottom=0;" parent="C-vyLk0tnHw3VtMMgP7b-2" vertex="1">
          <mxGeometry y="150" width="250" height="30" as="geometry" />
        </mxCell>
        <mxCell id="I6zElXgZEDLd3gUoQ3DE-77" style="shape=partialRectangle;overflow=hidden;connectable=0;fillColor=#b1ddf0;top=0;left=0;bottom=0;right=0;strokeColor=#10739e;" parent="I6zElXgZEDLd3gUoQ3DE-76" vertex="1">
          <mxGeometry width="30" height="30" as="geometry">
            <mxRectangle width="30" height="30" as="alternateBounds" />
          </mxGeometry>
        </mxCell>
        <mxCell id="I6zElXgZEDLd3gUoQ3DE-78" value="zip_codeÂ VARCHAR(15)" style="shape=partialRectangle;overflow=hidden;connectable=0;fillColor=#b1ddf0;top=0;left=0;bottom=0;right=0;align=left;spacingLeft=6;strokeColor=#10739e;" parent="I6zElXgZEDLd3gUoQ3DE-76" vertex="1">
          <mxGeometry x="30" width="220" height="30" as="geometry">
            <mxRectangle width="220" height="30" as="alternateBounds" />
          </mxGeometry>
        </mxCell>
        <mxCell id="I6zElXgZEDLd3gUoQ3DE-73" style="shape=partialRectangle;collapsible=0;dropTarget=0;pointerEvents=0;fillColor=none;points=[[0,0.5],[1,0.5]];portConstraint=eastwest;top=0;left=0;right=0;bottom=0;" parent="C-vyLk0tnHw3VtMMgP7b-2" vertex="1">
          <mxGeometry y="180" width="250" height="30" as="geometry" />
        </mxCell>
        <mxCell id="I6zElXgZEDLd3gUoQ3DE-74" style="shape=partialRectangle;overflow=hidden;connectable=0;fillColor=#b1ddf0;top=0;left=0;bottom=0;right=0;strokeColor=#10739e;" parent="I6zElXgZEDLd3gUoQ3DE-73" vertex="1">
          <mxGeometry width="30" height="30" as="geometry">
            <mxRectangle width="30" height="30" as="alternateBounds" />
          </mxGeometry>
        </mxCell>
        <mxCell id="I6zElXgZEDLd3gUoQ3DE-75" value="congressional_district_num int" style="shape=partialRectangle;overflow=hidden;connectable=0;fillColor=#b1ddf0;top=0;left=0;bottom=0;right=0;align=left;spacingLeft=6;strokeColor=#10739e;" parent="I6zElXgZEDLd3gUoQ3DE-73" vertex="1">
          <mxGeometry x="30" width="220" height="30" as="geometry">
            <mxRectangle width="220" height="30" as="alternateBounds" />
          </mxGeometry>
        </mxCell>
        <mxCell id="I6zElXgZEDLd3gUoQ3DE-70" style="shape=partialRectangle;collapsible=0;dropTarget=0;pointerEvents=0;fillColor=none;points=[[0,0.5],[1,0.5]];portConstraint=eastwest;top=0;left=0;right=0;bottom=0;" parent="C-vyLk0tnHw3VtMMgP7b-2" vertex="1">
          <mxGeometry y="210" width="250" height="30" as="geometry" />
        </mxCell>
        <mxCell id="I6zElXgZEDLd3gUoQ3DE-71" style="shape=partialRectangle;overflow=hidden;connectable=0;fillColor=#b1ddf0;top=0;left=0;bottom=0;right=0;strokeColor=#10739e;" parent="I6zElXgZEDLd3gUoQ3DE-70" vertex="1">
          <mxGeometry width="30" height="30" as="geometry">
            <mxRectangle width="30" height="30" as="alternateBounds" />
          </mxGeometry>
        </mxCell>
        <mxCell id="I6zElXgZEDLd3gUoQ3DE-72" value="senate_district_num int" style="shape=partialRectangle;overflow=hidden;connectable=0;fillColor=#b1ddf0;top=0;left=0;bottom=0;right=0;align=left;spacingLeft=6;strokeColor=#10739e;" parent="I6zElXgZEDLd3gUoQ3DE-70" vertex="1">
          <mxGeometry x="30" width="220" height="30" as="geometry">
            <mxRectangle width="220" height="30" as="alternateBounds" />
          </mxGeometry>
        </mxCell>
        <mxCell id="I6zElXgZEDLd3gUoQ3DE-85" style="shape=partialRectangle;collapsible=0;dropTarget=0;pointerEvents=0;fillColor=none;points=[[0,0.5],[1,0.5]];portConstraint=eastwest;top=0;left=0;right=0;bottom=0;" parent="C-vyLk0tnHw3VtMMgP7b-2" vertex="1">
          <mxGeometry y="240" width="250" height="30" as="geometry" />
        </mxCell>
        <mxCell id="I6zElXgZEDLd3gUoQ3DE-86" style="shape=partialRectangle;overflow=hidden;connectable=0;fillColor=#b1ddf0;top=0;left=0;bottom=0;right=0;strokeColor=#10739e;" parent="I6zElXgZEDLd3gUoQ3DE-85" vertex="1">
          <mxGeometry width="30" height="30" as="geometry">
            <mxRectangle width="30" height="30" as="alternateBounds" />
          </mxGeometry>
        </mxCell>
        <mxCell id="I6zElXgZEDLd3gUoQ3DE-87" value="assembly_district_num int" style="shape=partialRectangle;overflow=hidden;connectable=0;fillColor=#b1ddf0;top=0;left=0;bottom=0;right=0;align=left;spacingLeft=6;strokeColor=#10739e;" parent="I6zElXgZEDLd3gUoQ3DE-85" vertex="1">
          <mxGeometry x="30" width="220" height="30" as="geometry">
            <mxRectangle width="220" height="30" as="alternateBounds" />
          </mxGeometry>
        </mxCell>
        <mxCell id="I6zElXgZEDLd3gUoQ3DE-1" value="PatientCharacteristics" style="shape=table;startSize=30;container=1;collapsible=1;childLayout=tableLayout;fixedRows=1;rowLines=0;fontStyle=1;align=center;resizeLast=1;fillColor=#1ba1e2;fontColor=#ffffff;strokeColor=#006EAF;" parent="1" vertex="1">
          <mxGeometry x="625" y="446" width="250" height="240" as="geometry" />
        </mxCell>
        <mxCell id="I6zElXgZEDLd3gUoQ3DE-2" value="" style="shape=partialRectangle;collapsible=0;dropTarget=0;pointerEvents=0;fillColor=none;points=[[0,0.5],[1,0.5]];portConstraint=eastwest;top=0;left=0;right=0;bottom=1;" parent="I6zElXgZEDLd3gUoQ3DE-1" vertex="1">
          <mxGeometry y="30" width="250" height="30" as="geometry" />
        </mxCell>
        <mxCell id="I6zElXgZEDLd3gUoQ3DE-3" value="PK" style="shape=partialRectangle;overflow=hidden;connectable=0;fillColor=#b1ddf0;top=0;left=0;bottom=0;right=0;fontStyle=1;strokeColor=#10739e;" parent="I6zElXgZEDLd3gUoQ3DE-2" vertex="1">
          <mxGeometry width="30" height="30" as="geometry">
            <mxRectangle width="30" height="30" as="alternateBounds" />
          </mxGeometry>
        </mxCell>
        <mxCell id="I6zElXgZEDLd3gUoQ3DE-4" value="ch_id int NOT NULL " style="shape=partialRectangle;overflow=hidden;connectable=0;fillColor=#b1ddf0;top=0;left=0;bottom=0;right=0;align=left;spacingLeft=6;fontStyle=5;strokeColor=#10739e;" parent="I6zElXgZEDLd3gUoQ3DE-2" vertex="1">
          <mxGeometry x="30" width="220" height="30" as="geometry">
            <mxRectangle width="220" height="30" as="alternateBounds" />
          </mxGeometry>
        </mxCell>
        <mxCell id="I6zElXgZEDLd3gUoQ3DE-5" value="" style="shape=partialRectangle;collapsible=0;dropTarget=0;pointerEvents=0;fillColor=none;points=[[0,0.5],[1,0.5]];portConstraint=eastwest;top=0;left=0;right=0;bottom=0;" parent="I6zElXgZEDLd3gUoQ3DE-1" vertex="1">
          <mxGeometry y="60" width="250" height="30" as="geometry" />
        </mxCell>
        <mxCell id="I6zElXgZEDLd3gUoQ3DE-6" value="" style="shape=partialRectangle;overflow=hidden;connectable=0;fillColor=#b1ddf0;top=0;left=0;bottom=0;right=0;strokeColor=#10739e;" parent="I6zElXgZEDLd3gUoQ3DE-5" vertex="1">
          <mxGeometry width="30" height="30" as="geometry">
            <mxRectangle width="30" height="30" as="alternateBounds" />
          </mxGeometry>
        </mxCell>
        <mxCell id="I6zElXgZEDLd3gUoQ3DE-7" value="sex varchar(50) NOT NULL" style="shape=partialRectangle;overflow=hidden;connectable=0;fillColor=#b1ddf0;top=0;left=0;bottom=0;right=0;align=left;spacingLeft=6;strokeColor=#10739e;" parent="I6zElXgZEDLd3gUoQ3DE-5" vertex="1">
          <mxGeometry x="30" width="220" height="30" as="geometry">
            <mxRectangle width="220" height="30" as="alternateBounds" />
          </mxGeometry>
        </mxCell>
        <mxCell id="I6zElXgZEDLd3gUoQ3DE-8" value="" style="shape=partialRectangle;collapsible=0;dropTarget=0;pointerEvents=0;fillColor=none;points=[[0,0.5],[1,0.5]];portConstraint=eastwest;top=0;left=0;right=0;bottom=0;" parent="I6zElXgZEDLd3gUoQ3DE-1" vertex="1">
          <mxGeometry y="90" width="250" height="30" as="geometry" />
        </mxCell>
        <mxCell id="I6zElXgZEDLd3gUoQ3DE-9" value="" style="shape=partialRectangle;overflow=hidden;connectable=0;fillColor=#b1ddf0;top=0;left=0;bottom=0;right=0;strokeColor=#10739e;" parent="I6zElXgZEDLd3gUoQ3DE-8" vertex="1">
          <mxGeometry width="30" height="30" as="geometry">
            <mxRectangle width="30" height="30" as="alternateBounds" />
          </mxGeometry>
        </mxCell>
        <mxCell id="I6zElXgZEDLd3gUoQ3DE-10" value="race_group varchar(50)" style="shape=partialRectangle;overflow=hidden;connectable=0;fillColor=#b1ddf0;top=0;left=0;bottom=0;right=0;align=left;spacingLeft=6;strokeColor=#10739e;" parent="I6zElXgZEDLd3gUoQ3DE-8" vertex="1">
          <mxGeometry x="30" width="220" height="30" as="geometry">
            <mxRectangle width="220" height="30" as="alternateBounds" />
          </mxGeometry>
        </mxCell>
        <mxCell id="I6zElXgZEDLd3gUoQ3DE-23" style="shape=partialRectangle;collapsible=0;dropTarget=0;pointerEvents=0;fillColor=none;points=[[0,0.5],[1,0.5]];portConstraint=eastwest;top=0;left=0;right=0;bottom=0;" parent="I6zElXgZEDLd3gUoQ3DE-1" vertex="1">
          <mxGeometry y="120" width="250" height="30" as="geometry" />
        </mxCell>
        <mxCell id="I6zElXgZEDLd3gUoQ3DE-24" style="shape=partialRectangle;overflow=hidden;connectable=0;fillColor=#b1ddf0;top=0;left=0;bottom=0;right=0;strokeColor=#10739e;" parent="I6zElXgZEDLd3gUoQ3DE-23" vertex="1">
          <mxGeometry width="30" height="30" as="geometry">
            <mxRectangle width="30" height="30" as="alternateBounds" />
          </mxGeometry>
        </mxCell>
        <mxCell id="I6zElXgZEDLd3gUoQ3DE-25" value="age_group varchar(50) NOT NULL" style="shape=partialRectangle;overflow=hidden;connectable=0;fillColor=#b1ddf0;top=0;left=0;bottom=0;right=0;align=left;spacingLeft=6;strokeColor=#10739e;" parent="I6zElXgZEDLd3gUoQ3DE-23" vertex="1">
          <mxGeometry x="30" width="220" height="30" as="geometry">
            <mxRectangle width="220" height="30" as="alternateBounds" />
          </mxGeometry>
        </mxCell>
        <mxCell id="I6zElXgZEDLd3gUoQ3DE-20" style="shape=partialRectangle;collapsible=0;dropTarget=0;pointerEvents=0;fillColor=none;points=[[0,0.5],[1,0.5]];portConstraint=eastwest;top=0;left=0;right=0;bottom=0;" parent="I6zElXgZEDLd3gUoQ3DE-1" vertex="1">
          <mxGeometry y="150" width="250" height="30" as="geometry" />
        </mxCell>
        <mxCell id="I6zElXgZEDLd3gUoQ3DE-21" style="shape=partialRectangle;overflow=hidden;connectable=0;fillColor=#b1ddf0;top=0;left=0;bottom=0;right=0;strokeColor=#10739e;" parent="I6zElXgZEDLd3gUoQ3DE-20" vertex="1">
          <mxGeometry width="30" height="30" as="geometry">
            <mxRectangle width="30" height="30" as="alternateBounds" />
          </mxGeometry>
        </mxCell>
        <mxCell id="I6zElXgZEDLd3gUoQ3DE-22" value="language varchar(50) NOT NULL" style="shape=partialRectangle;overflow=hidden;connectable=0;fillColor=#b1ddf0;top=0;left=0;bottom=0;right=0;align=left;spacingLeft=6;strokeColor=#10739e;" parent="I6zElXgZEDLd3gUoQ3DE-20" vertex="1">
          <mxGeometry x="30" width="220" height="30" as="geometry">
            <mxRectangle width="220" height="30" as="alternateBounds" />
          </mxGeometry>
        </mxCell>
        <mxCell id="I6zElXgZEDLd3gUoQ3DE-17" style="shape=partialRectangle;collapsible=0;dropTarget=0;pointerEvents=0;fillColor=none;points=[[0,0.5],[1,0.5]];portConstraint=eastwest;top=0;left=0;right=0;bottom=0;" parent="I6zElXgZEDLd3gUoQ3DE-1" vertex="1">
          <mxGeometry y="180" width="250" height="30" as="geometry" />
        </mxCell>
        <mxCell id="I6zElXgZEDLd3gUoQ3DE-18" style="shape=partialRectangle;overflow=hidden;connectable=0;fillColor=#b1ddf0;top=0;left=0;bottom=0;right=0;strokeColor=#10739e;" parent="I6zElXgZEDLd3gUoQ3DE-17" vertex="1">
          <mxGeometry width="30" height="30" as="geometry">
            <mxRectangle width="30" height="30" as="alternateBounds" />
          </mxGeometry>
        </mxCell>
        <mxCell id="I6zElXgZEDLd3gUoQ3DE-19" value="payer_source varchar(50) NOT NULL" style="shape=partialRectangle;overflow=hidden;connectable=0;fillColor=#b1ddf0;top=0;left=0;bottom=0;right=0;align=left;spacingLeft=6;strokeColor=#10739e;" parent="I6zElXgZEDLd3gUoQ3DE-17" vertex="1">
          <mxGeometry x="30" width="220" height="30" as="geometry">
            <mxRectangle width="220" height="30" as="alternateBounds" />
          </mxGeometry>
        </mxCell>
        <mxCell id="I6zElXgZEDLd3gUoQ3DE-14" style="shape=partialRectangle;collapsible=0;dropTarget=0;pointerEvents=0;fillColor=none;points=[[0,0.5],[1,0.5]];portConstraint=eastwest;top=0;left=0;right=0;bottom=0;" parent="I6zElXgZEDLd3gUoQ3DE-1" vertex="1">
          <mxGeometry y="210" width="250" height="30" as="geometry" />
        </mxCell>
        <mxCell id="I6zElXgZEDLd3gUoQ3DE-15" style="shape=partialRectangle;overflow=hidden;connectable=0;fillColor=#b1ddf0;top=0;left=0;bottom=0;right=0;strokeColor=#10739e;" parent="I6zElXgZEDLd3gUoQ3DE-14" vertex="1">
          <mxGeometry width="30" height="30" as="geometry">
            <mxRectangle width="30" height="30" as="alternateBounds" />
          </mxGeometry>
        </mxCell>
        <mxCell id="I6zElXgZEDLd3gUoQ3DE-16" value="disposition varchar(150) NOT NULL" style="shape=partialRectangle;overflow=hidden;connectable=0;fillColor=#b1ddf0;top=0;left=0;bottom=0;right=0;align=left;spacingLeft=6;strokeColor=#10739e;" parent="I6zElXgZEDLd3gUoQ3DE-14" vertex="1">
          <mxGeometry x="30" width="220" height="30" as="geometry">
            <mxRectangle width="220" height="30" as="alternateBounds" />
          </mxGeometry>
        </mxCell>
        <mxCell id="I6zElXgZEDLd3gUoQ3DE-26" value="PatientProcedures" style="shape=table;startSize=30;container=1;collapsible=1;childLayout=tableLayout;fixedRows=1;rowLines=0;fontStyle=1;align=center;resizeLast=1;fillColor=#1ba1e2;fontColor=#ffffff;strokeColor=#006EAF;" parent="1" vertex="1">
          <mxGeometry x="-130" y="380" width="250" height="180" as="geometry" />
        </mxCell>
        <mxCell id="I6zElXgZEDLd3gUoQ3DE-27" value="" style="shape=partialRectangle;collapsible=0;dropTarget=0;pointerEvents=0;fillColor=none;points=[[0,0.5],[1,0.5]];portConstraint=eastwest;top=0;left=0;right=0;bottom=1;" parent="I6zElXgZEDLd3gUoQ3DE-26" vertex="1">
          <mxGeometry y="30" width="250" height="30" as="geometry" />
        </mxCell>
        <mxCell id="I6zElXgZEDLd3gUoQ3DE-28" value="PK" style="shape=partialRectangle;overflow=hidden;connectable=0;fillColor=#b1ddf0;top=0;left=0;bottom=0;right=0;fontStyle=1;strokeColor=#10739e;" parent="I6zElXgZEDLd3gUoQ3DE-27" vertex="1">
          <mxGeometry width="30" height="30" as="geometry">
            <mxRectangle width="30" height="30" as="alternateBounds" />
          </mxGeometry>
        </mxCell>
        <mxCell id="I6zElXgZEDLd3gUoQ3DE-29" value="pr_id varchar(20) NOT NULL " style="shape=partialRectangle;overflow=hidden;connectable=0;fillColor=#b1ddf0;top=0;left=0;bottom=0;right=0;align=left;spacingLeft=6;fontStyle=5;strokeColor=#10739e;" parent="I6zElXgZEDLd3gUoQ3DE-27" vertex="1">
          <mxGeometry x="30" width="220" height="30" as="geometry">
            <mxRectangle width="220" height="30" as="alternateBounds" />
          </mxGeometry>
        </mxCell>
        <mxCell id="I6zElXgZEDLd3gUoQ3DE-30" value="" style="shape=partialRectangle;collapsible=0;dropTarget=0;pointerEvents=0;fillColor=none;points=[[0,0.5],[1,0.5]];portConstraint=eastwest;top=0;left=0;right=0;bottom=0;" parent="I6zElXgZEDLd3gUoQ3DE-26" vertex="1">
          <mxGeometry y="60" width="250" height="30" as="geometry" />
        </mxCell>
        <mxCell id="I6zElXgZEDLd3gUoQ3DE-31" value="" style="shape=partialRectangle;overflow=hidden;connectable=0;fillColor=#b1ddf0;top=0;left=0;bottom=0;right=0;strokeColor=#10739e;" parent="I6zElXgZEDLd3gUoQ3DE-30" vertex="1">
          <mxGeometry width="30" height="30" as="geometry">
            <mxRectangle width="30" height="30" as="alternateBounds" />
          </mxGeometry>
        </mxCell>
        <mxCell id="I6zElXgZEDLd3gUoQ3DE-32" value="name varchar(150) NOT NULL" style="shape=partialRectangle;overflow=hidden;connectable=0;fillColor=#b1ddf0;top=0;left=0;bottom=0;right=0;align=left;spacingLeft=6;strokeColor=#10739e;" parent="I6zElXgZEDLd3gUoQ3DE-30" vertex="1">
          <mxGeometry x="30" width="220" height="30" as="geometry">
            <mxRectangle width="220" height="30" as="alternateBounds" />
          </mxGeometry>
        </mxCell>
        <mxCell id="I6zElXgZEDLd3gUoQ3DE-33" value="" style="shape=partialRectangle;collapsible=0;dropTarget=0;pointerEvents=0;fillColor=none;points=[[0,0.5],[1,0.5]];portConstraint=eastwest;top=0;left=0;right=0;bottom=0;" parent="I6zElXgZEDLd3gUoQ3DE-26" vertex="1">
          <mxGeometry y="90" width="250" height="30" as="geometry" />
        </mxCell>
        <mxCell id="I6zElXgZEDLd3gUoQ3DE-34" value="" style="shape=partialRectangle;overflow=hidden;connectable=0;fillColor=#b1ddf0;top=0;left=0;bottom=0;right=0;strokeColor=#10739e;" parent="I6zElXgZEDLd3gUoQ3DE-33" vertex="1">
          <mxGeometry width="30" height="30" as="geometry">
            <mxRectangle width="30" height="30" as="alternateBounds" />
          </mxGeometry>
        </mxCell>
        <mxCell id="I6zElXgZEDLd3gUoQ3DE-35" value="description Text(1500)" style="shape=partialRectangle;overflow=hidden;connectable=0;fillColor=#b1ddf0;top=0;left=0;bottom=0;right=0;align=left;spacingLeft=6;strokeColor=#10739e;" parent="I6zElXgZEDLd3gUoQ3DE-33" vertex="1">
          <mxGeometry x="30" width="220" height="30" as="geometry">
            <mxRectangle width="220" height="30" as="alternateBounds" />
          </mxGeometry>
        </mxCell>
        <mxCell id="I6zElXgZEDLd3gUoQ3DE-36" style="shape=partialRectangle;collapsible=0;dropTarget=0;pointerEvents=0;fillColor=none;points=[[0,0.5],[1,0.5]];portConstraint=eastwest;top=0;left=0;right=0;bottom=0;" parent="I6zElXgZEDLd3gUoQ3DE-26" vertex="1">
          <mxGeometry y="120" width="250" height="30" as="geometry" />
        </mxCell>
        <mxCell id="I6zElXgZEDLd3gUoQ3DE-37" style="shape=partialRectangle;overflow=hidden;connectable=0;fillColor=#b1ddf0;top=0;left=0;bottom=0;right=0;strokeColor=#10739e;" parent="I6zElXgZEDLd3gUoQ3DE-36" vertex="1">
          <mxGeometry width="30" height="30" as="geometry">
            <mxRectangle width="30" height="30" as="alternateBounds" />
          </mxGeometry>
        </mxCell>
        <mxCell id="I6zElXgZEDLd3gUoQ3DE-38" value="type varchar(50)" style="shape=partialRectangle;overflow=hidden;connectable=0;fillColor=#b1ddf0;top=0;left=0;bottom=0;right=0;align=left;spacingLeft=6;strokeColor=#10739e;" parent="I6zElXgZEDLd3gUoQ3DE-36" vertex="1">
          <mxGeometry x="30" width="220" height="30" as="geometry">
            <mxRectangle width="220" height="30" as="alternateBounds" />
          </mxGeometry>
        </mxCell>
        <mxCell id="I6zElXgZEDLd3gUoQ3DE-39" style="shape=partialRectangle;collapsible=0;dropTarget=0;pointerEvents=0;fillColor=none;points=[[0,0.5],[1,0.5]];portConstraint=eastwest;top=0;left=0;right=0;bottom=0;" parent="I6zElXgZEDLd3gUoQ3DE-26" vertex="1">
          <mxGeometry y="150" width="250" height="30" as="geometry" />
        </mxCell>
        <mxCell id="I6zElXgZEDLd3gUoQ3DE-40" style="shape=partialRectangle;overflow=hidden;connectable=0;fillColor=#b1ddf0;top=0;left=0;bottom=0;right=0;strokeColor=#10739e;" parent="I6zElXgZEDLd3gUoQ3DE-39" vertex="1">
          <mxGeometry width="30" height="30" as="geometry">
            <mxRectangle width="30" height="30" as="alternateBounds" />
          </mxGeometry>
        </mxCell>
        <mxCell id="I6zElXgZEDLd3gUoQ3DE-41" value="price Numeric" style="shape=partialRectangle;overflow=hidden;connectable=0;fillColor=#b1ddf0;top=0;left=0;bottom=0;right=0;align=left;spacingLeft=6;strokeColor=#10739e;" parent="I6zElXgZEDLd3gUoQ3DE-39" vertex="1">
          <mxGeometry x="30" width="220" height="30" as="geometry">
            <mxRectangle width="220" height="30" as="alternateBounds" />
          </mxGeometry>
        </mxCell>
        <mxCell id="I6zElXgZEDLd3gUoQ3DE-88" value="HealthFacilities" style="shape=table;startSize=30;container=1;collapsible=1;childLayout=tableLayout;fixedRows=1;rowLines=0;fontStyle=1;align=center;resizeLast=1;fillColor=#1ba1e2;fontColor=#ffffff;strokeColor=#006EAF;" parent="1" vertex="1">
          <mxGeometry x="-184" y="87" width="350" height="260" as="geometry" />
        </mxCell>
        <mxCell id="I6zElXgZEDLd3gUoQ3DE-89" value="" style="shape=partialRectangle;collapsible=0;dropTarget=0;pointerEvents=0;fillColor=none;points=[[0,0.5],[1,0.5]];portConstraint=eastwest;top=0;left=0;right=0;bottom=1;" parent="I6zElXgZEDLd3gUoQ3DE-88" vertex="1">
          <mxGeometry y="30" width="350" height="30" as="geometry" />
        </mxCell>
        <mxCell id="I6zElXgZEDLd3gUoQ3DE-90" value="PK" style="shape=partialRectangle;overflow=hidden;connectable=0;fillColor=#b1ddf0;top=0;left=0;bottom=0;right=0;fontStyle=1;strokeColor=#10739e;" parent="I6zElXgZEDLd3gUoQ3DE-89" vertex="1">
          <mxGeometry width="30" height="30" as="geometry">
            <mxRectangle width="30" height="30" as="alternateBounds" />
          </mxGeometry>
        </mxCell>
        <mxCell id="I6zElXgZEDLd3gUoQ3DE-91" value="h_id int NOT NULL " style="shape=partialRectangle;overflow=hidden;connectable=0;fillColor=#b1ddf0;top=0;left=0;bottom=0;right=0;align=left;spacingLeft=6;fontStyle=5;strokeColor=#10739e;" parent="I6zElXgZEDLd3gUoQ3DE-89" vertex="1">
          <mxGeometry x="30" width="320" height="30" as="geometry">
            <mxRectangle width="320" height="30" as="alternateBounds" />
          </mxGeometry>
        </mxCell>
        <mxCell id="I6zElXgZEDLd3gUoQ3DE-92" value="" style="shape=partialRectangle;collapsible=0;dropTarget=0;pointerEvents=0;fillColor=none;points=[[0,0.5],[1,0.5]];portConstraint=eastwest;top=0;left=0;right=0;bottom=0;" parent="I6zElXgZEDLd3gUoQ3DE-88" vertex="1">
          <mxGeometry y="60" width="350" height="30" as="geometry" />
        </mxCell>
        <mxCell id="I6zElXgZEDLd3gUoQ3DE-93" value="" style="shape=partialRectangle;overflow=hidden;connectable=0;fillColor=#b1ddf0;top=0;left=0;bottom=0;right=0;strokeColor=#10739e;" parent="I6zElXgZEDLd3gUoQ3DE-92" vertex="1">
          <mxGeometry width="30" height="30" as="geometry">
            <mxRectangle width="30" height="30" as="alternateBounds" />
          </mxGeometry>
        </mxCell>
        <mxCell id="I6zElXgZEDLd3gUoQ3DE-94" value="oshpd_id int" style="shape=partialRectangle;overflow=hidden;connectable=0;fillColor=#b1ddf0;top=0;left=0;bottom=0;right=0;align=left;spacingLeft=6;strokeColor=#10739e;" parent="I6zElXgZEDLd3gUoQ3DE-92" vertex="1">
          <mxGeometry x="30" width="320" height="30" as="geometry">
            <mxRectangle width="320" height="30" as="alternateBounds" />
          </mxGeometry>
        </mxCell>
        <mxCell id="I6zElXgZEDLd3gUoQ3DE-95" value="" style="shape=partialRectangle;collapsible=0;dropTarget=0;pointerEvents=0;fillColor=none;points=[[0,0.5],[1,0.5]];portConstraint=eastwest;top=0;left=0;right=0;bottom=0;" parent="I6zElXgZEDLd3gUoQ3DE-88" vertex="1">
          <mxGeometry y="90" width="350" height="30" as="geometry" />
        </mxCell>
        <mxCell id="I6zElXgZEDLd3gUoQ3DE-96" value="" style="shape=partialRectangle;overflow=hidden;connectable=0;fillColor=#b1ddf0;top=0;left=0;bottom=0;right=0;strokeColor=#10739e;" parent="I6zElXgZEDLd3gUoQ3DE-95" vertex="1">
          <mxGeometry width="30" height="30" as="geometry">
            <mxRectangle width="30" height="30" as="alternateBounds" />
          </mxGeometry>
        </mxCell>
        <mxCell id="I6zElXgZEDLd3gUoQ3DE-97" value="name varchar(250)" style="shape=partialRectangle;overflow=hidden;connectable=0;fillColor=#b1ddf0;top=0;left=0;bottom=0;right=0;align=left;spacingLeft=6;strokeColor=#10739e;" parent="I6zElXgZEDLd3gUoQ3DE-95" vertex="1">
          <mxGeometry x="30" width="320" height="30" as="geometry">
            <mxRectangle width="320" height="30" as="alternateBounds" />
          </mxGeometry>
        </mxCell>
        <mxCell id="I6zElXgZEDLd3gUoQ3DE-98" style="shape=partialRectangle;collapsible=0;dropTarget=0;pointerEvents=0;fillColor=none;points=[[0,0.5],[1,0.5]];portConstraint=eastwest;top=0;left=0;right=0;bottom=0;" parent="I6zElXgZEDLd3gUoQ3DE-88" vertex="1">
          <mxGeometry y="120" width="350" height="20" as="geometry" />
        </mxCell>
        <mxCell id="I6zElXgZEDLd3gUoQ3DE-99" style="shape=partialRectangle;overflow=hidden;connectable=0;fillColor=#b1ddf0;top=0;left=0;bottom=0;right=0;strokeColor=#10739e;" parent="I6zElXgZEDLd3gUoQ3DE-98" vertex="1">
          <mxGeometry width="30" height="20" as="geometry">
            <mxRectangle width="30" height="20" as="alternateBounds" />
          </mxGeometry>
        </mxCell>
        <mxCell id="I6zElXgZEDLd3gUoQ3DE-100" value="control_type_desc varchar(250) NOT NULL" style="shape=partialRectangle;overflow=hidden;connectable=0;fillColor=#b1ddf0;top=0;left=0;bottom=0;right=0;align=left;spacingLeft=6;strokeColor=#10739e;" parent="I6zElXgZEDLd3gUoQ3DE-98" vertex="1">
          <mxGeometry x="30" width="320" height="20" as="geometry">
            <mxRectangle width="320" height="20" as="alternateBounds" />
          </mxGeometry>
        </mxCell>
        <mxCell id="I6zElXgZEDLd3gUoQ3DE-101" style="shape=partialRectangle;collapsible=0;dropTarget=0;pointerEvents=0;fillColor=none;points=[[0,0.5],[1,0.5]];portConstraint=eastwest;top=0;left=0;right=0;bottom=0;" parent="I6zElXgZEDLd3gUoQ3DE-88" vertex="1">
          <mxGeometry y="140" width="350" height="30" as="geometry" />
        </mxCell>
        <mxCell id="I6zElXgZEDLd3gUoQ3DE-102" style="shape=partialRectangle;overflow=hidden;connectable=0;fillColor=#b1ddf0;top=0;left=0;bottom=0;right=0;strokeColor=#10739e;" parent="I6zElXgZEDLd3gUoQ3DE-101" vertex="1">
          <mxGeometry width="30" height="30" as="geometry">
            <mxRectangle width="30" height="30" as="alternateBounds" />
          </mxGeometry>
        </mxCell>
        <mxCell id="I6zElXgZEDLd3gUoQ3DE-103" value="control_type_category_desc varchar(100) NOT NULL" style="shape=partialRectangle;overflow=hidden;connectable=0;fillColor=#b1ddf0;top=0;left=0;bottom=0;right=0;align=left;spacingLeft=6;strokeColor=#10739e;" parent="I6zElXgZEDLd3gUoQ3DE-101" vertex="1">
          <mxGeometry x="30" width="320" height="30" as="geometry">
            <mxRectangle width="320" height="30" as="alternateBounds" />
          </mxGeometry>
        </mxCell>
        <mxCell id="I6zElXgZEDLd3gUoQ3DE-104" style="shape=partialRectangle;collapsible=0;dropTarget=0;pointerEvents=0;fillColor=none;points=[[0,0.5],[1,0.5]];portConstraint=eastwest;top=0;left=0;right=0;bottom=0;" parent="I6zElXgZEDLd3gUoQ3DE-88" vertex="1">
          <mxGeometry y="170" width="350" height="30" as="geometry" />
        </mxCell>
        <mxCell id="I6zElXgZEDLd3gUoQ3DE-105" style="shape=partialRectangle;overflow=hidden;connectable=0;fillColor=#b1ddf0;top=0;left=0;bottom=0;right=0;strokeColor=#10739e;" parent="I6zElXgZEDLd3gUoQ3DE-104" vertex="1">
          <mxGeometry width="30" height="30" as="geometry">
            <mxRectangle width="30" height="30" as="alternateBounds" />
          </mxGeometry>
        </mxCell>
        <mxCell id="I6zElXgZEDLd3gUoQ3DE-106" value="mssa_name VARCHAR(200)" style="shape=partialRectangle;overflow=hidden;connectable=0;fillColor=#b1ddf0;top=0;left=0;bottom=0;right=0;align=left;spacingLeft=6;strokeColor=#10739e;" parent="I6zElXgZEDLd3gUoQ3DE-104" vertex="1">
          <mxGeometry x="30" width="320" height="30" as="geometry">
            <mxRectangle width="320" height="30" as="alternateBounds" />
          </mxGeometry>
        </mxCell>
        <mxCell id="I6zElXgZEDLd3gUoQ3DE-107" style="shape=partialRectangle;collapsible=0;dropTarget=0;pointerEvents=0;fillColor=none;points=[[0,0.5],[1,0.5]];portConstraint=eastwest;top=0;left=0;right=0;bottom=0;" parent="I6zElXgZEDLd3gUoQ3DE-88" vertex="1">
          <mxGeometry y="200" width="350" height="30" as="geometry" />
        </mxCell>
        <mxCell id="I6zElXgZEDLd3gUoQ3DE-108" style="shape=partialRectangle;overflow=hidden;connectable=0;fillColor=#b1ddf0;top=0;left=0;bottom=0;right=0;strokeColor=#10739e;" parent="I6zElXgZEDLd3gUoQ3DE-107" vertex="1">
          <mxGeometry width="30" height="30" as="geometry">
            <mxRectangle width="30" height="30" as="alternateBounds" />
          </mxGeometry>
        </mxCell>
        <mxCell id="I6zElXgZEDLd3gUoQ3DE-109" value="mssa_designation varchar(50)" style="shape=partialRectangle;overflow=hidden;connectable=0;fillColor=#b1ddf0;top=0;left=0;bottom=0;right=0;align=left;spacingLeft=6;strokeColor=#10739e;" parent="I6zElXgZEDLd3gUoQ3DE-107" vertex="1">
          <mxGeometry x="30" width="320" height="30" as="geometry">
            <mxRectangle width="320" height="30" as="alternateBounds" />
          </mxGeometry>
        </mxCell>
        <mxCell id="I6zElXgZEDLd3gUoQ3DE-110" style="shape=partialRectangle;collapsible=0;dropTarget=0;pointerEvents=0;fillColor=none;points=[[0,0.5],[1,0.5]];portConstraint=eastwest;top=0;left=0;right=0;bottom=0;" parent="I6zElXgZEDLd3gUoQ3DE-88" vertex="1">
          <mxGeometry y="230" width="350" height="30" as="geometry" />
        </mxCell>
        <mxCell id="I6zElXgZEDLd3gUoQ3DE-111" style="shape=partialRectangle;overflow=hidden;connectable=0;fillColor=#b1ddf0;top=0;left=0;bottom=0;right=0;strokeColor=#10739e;" parent="I6zElXgZEDLd3gUoQ3DE-110" vertex="1">
          <mxGeometry width="30" height="30" as="geometry">
            <mxRectangle width="30" height="30" as="alternateBounds" />
          </mxGeometry>
        </mxCell>
        <mxCell id="I6zElXgZEDLd3gUoQ3DE-112" value="license_type varchar(50) NOT NULL" style="shape=partialRectangle;overflow=hidden;connectable=0;fillColor=#b1ddf0;top=0;left=0;bottom=0;right=0;align=left;spacingLeft=6;strokeColor=#10739e;" parent="I6zElXgZEDLd3gUoQ3DE-110" vertex="1">
          <mxGeometry x="30" width="320" height="30" as="geometry">
            <mxRectangle width="320" height="30" as="alternateBounds" />
          </mxGeometry>
        </mxCell>
        <mxCell id="I6zElXgZEDLd3gUoQ3DE-116" value="Patients" style="shape=table;startSize=30;container=1;collapsible=1;childLayout=tableLayout;fixedRows=1;rowLines=0;fontStyle=1;align=center;resizeLast=1;fillColor=#1ba1e2;fontColor=#ffffff;strokeColor=#006EAF;" parent="1" vertex="1">
          <mxGeometry x="290" y="300" width="250" height="330" as="geometry" />
        </mxCell>
        <mxCell id="I6zElXgZEDLd3gUoQ3DE-117" value="" style="shape=partialRectangle;collapsible=0;dropTarget=0;pointerEvents=0;fillColor=none;points=[[0,0.5],[1,0.5]];portConstraint=eastwest;top=0;left=0;right=0;bottom=1;" parent="I6zElXgZEDLd3gUoQ3DE-116" vertex="1">
          <mxGeometry y="30" width="250" height="30" as="geometry" />
        </mxCell>
        <mxCell id="I6zElXgZEDLd3gUoQ3DE-118" value="PK" style="shape=partialRectangle;overflow=hidden;connectable=0;fillColor=#b1ddf0;top=0;left=0;bottom=0;right=0;fontStyle=1;strokeColor=#10739e;" parent="I6zElXgZEDLd3gUoQ3DE-117" vertex="1">
          <mxGeometry width="30" height="30" as="geometry">
            <mxRectangle width="30" height="30" as="alternateBounds" />
          </mxGeometry>
        </mxCell>
        <mxCell id="I6zElXgZEDLd3gUoQ3DE-119" value="p_id varchar(30) NOT NULL " style="shape=partialRectangle;overflow=hidden;connectable=0;fillColor=#b1ddf0;top=0;left=0;bottom=0;right=0;align=left;spacingLeft=6;fontStyle=5;strokeColor=#10739e;" parent="I6zElXgZEDLd3gUoQ3DE-117" vertex="1">
          <mxGeometry x="30" width="220" height="30" as="geometry">
            <mxRectangle width="220" height="30" as="alternateBounds" />
          </mxGeometry>
        </mxCell>
        <mxCell id="I6zElXgZEDLd3gUoQ3DE-120" value="" style="shape=partialRectangle;collapsible=0;dropTarget=0;pointerEvents=0;fillColor=none;points=[[0,0.5],[1,0.5]];portConstraint=eastwest;top=0;left=0;right=0;bottom=0;" parent="I6zElXgZEDLd3gUoQ3DE-116" vertex="1">
          <mxGeometry y="60" width="250" height="30" as="geometry" />
        </mxCell>
        <mxCell id="I6zElXgZEDLd3gUoQ3DE-121" value="" style="shape=partialRectangle;overflow=hidden;connectable=0;fillColor=#b1ddf0;top=0;left=0;bottom=0;right=0;strokeColor=#10739e;" parent="I6zElXgZEDLd3gUoQ3DE-120" vertex="1">
          <mxGeometry width="30" height="30" as="geometry">
            <mxRectangle width="30" height="30" as="alternateBounds" />
          </mxGeometry>
        </mxCell>
        <mxCell id="I6zElXgZEDLd3gUoQ3DE-122" value="name varchar(150) NOT NULL" style="shape=partialRectangle;overflow=hidden;connectable=0;fillColor=#b1ddf0;top=0;left=0;bottom=0;right=0;align=left;spacingLeft=6;strokeColor=#10739e;" parent="I6zElXgZEDLd3gUoQ3DE-120" vertex="1">
          <mxGeometry x="30" width="220" height="30" as="geometry">
            <mxRectangle width="220" height="30" as="alternateBounds" />
          </mxGeometry>
        </mxCell>
        <mxCell id="I6zElXgZEDLd3gUoQ3DE-123" value="" style="shape=partialRectangle;collapsible=0;dropTarget=0;pointerEvents=0;fillColor=none;points=[[0,0.5],[1,0.5]];portConstraint=eastwest;top=0;left=0;right=0;bottom=0;" parent="I6zElXgZEDLd3gUoQ3DE-116" vertex="1">
          <mxGeometry y="90" width="250" height="30" as="geometry" />
        </mxCell>
        <mxCell id="I6zElXgZEDLd3gUoQ3DE-124" value="FK1" style="shape=partialRectangle;overflow=hidden;connectable=0;fillColor=#b1ddf0;top=0;left=0;bottom=0;right=0;strokeColor=#10739e;" parent="I6zElXgZEDLd3gUoQ3DE-123" vertex="1">
          <mxGeometry width="30" height="30" as="geometry">
            <mxRectangle width="30" height="30" as="alternateBounds" />
          </mxGeometry>
        </mxCell>
        <mxCell id="I6zElXgZEDLd3gUoQ3DE-125" value="p_chid int" style="shape=partialRectangle;overflow=hidden;connectable=0;fillColor=#b1ddf0;top=0;left=0;bottom=0;right=0;align=left;spacingLeft=6;strokeColor=#10739e;" parent="I6zElXgZEDLd3gUoQ3DE-123" vertex="1">
          <mxGeometry x="30" width="220" height="30" as="geometry">
            <mxRectangle width="220" height="30" as="alternateBounds" />
          </mxGeometry>
        </mxCell>
        <mxCell id="I6zElXgZEDLd3gUoQ3DE-126" style="shape=partialRectangle;collapsible=0;dropTarget=0;pointerEvents=0;fillColor=none;points=[[0,0.5],[1,0.5]];portConstraint=eastwest;top=0;left=0;right=0;bottom=0;" parent="I6zElXgZEDLd3gUoQ3DE-116" vertex="1">
          <mxGeometry y="120" width="250" height="30" as="geometry" />
        </mxCell>
        <mxCell id="I6zElXgZEDLd3gUoQ3DE-127" value="FK2" style="shape=partialRectangle;overflow=hidden;connectable=0;fillColor=#b1ddf0;top=0;left=0;bottom=0;right=0;strokeColor=#10739e;" parent="I6zElXgZEDLd3gUoQ3DE-126" vertex="1">
          <mxGeometry width="30" height="30" as="geometry">
            <mxRectangle width="30" height="30" as="alternateBounds" />
          </mxGeometry>
        </mxCell>
        <mxCell id="I6zElXgZEDLd3gUoQ3DE-128" value="p_hid int NOT NULL" style="shape=partialRectangle;overflow=hidden;connectable=0;fillColor=#b1ddf0;top=0;left=0;bottom=0;right=0;align=left;spacingLeft=6;strokeColor=#10739e;" parent="I6zElXgZEDLd3gUoQ3DE-126" vertex="1">
          <mxGeometry x="30" width="220" height="30" as="geometry">
            <mxRectangle width="220" height="30" as="alternateBounds" />
          </mxGeometry>
        </mxCell>
        <mxCell id="I6zElXgZEDLd3gUoQ3DE-138" style="shape=partialRectangle;collapsible=0;dropTarget=0;pointerEvents=0;fillColor=none;points=[[0,0.5],[1,0.5]];portConstraint=eastwest;top=0;left=0;right=0;bottom=0;" parent="I6zElXgZEDLd3gUoQ3DE-116" vertex="1">
          <mxGeometry y="150" width="250" height="30" as="geometry" />
        </mxCell>
        <mxCell id="I6zElXgZEDLd3gUoQ3DE-139" style="shape=partialRectangle;overflow=hidden;connectable=0;fillColor=#b1ddf0;top=0;left=0;bottom=0;right=0;strokeColor=#10739e;" parent="I6zElXgZEDLd3gUoQ3DE-138" vertex="1">
          <mxGeometry width="30" height="30" as="geometry">
            <mxRectangle width="30" height="30" as="alternateBounds" />
          </mxGeometry>
        </mxCell>
        <mxCell id="I6zElXgZEDLd3gUoQ3DE-140" value="social_security_num char(11)" style="shape=partialRectangle;overflow=hidden;connectable=0;fillColor=#b1ddf0;top=0;left=0;bottom=0;right=0;align=left;spacingLeft=6;strokeColor=#10739e;" parent="I6zElXgZEDLd3gUoQ3DE-138" vertex="1">
          <mxGeometry x="30" width="220" height="30" as="geometry">
            <mxRectangle width="220" height="30" as="alternateBounds" />
          </mxGeometry>
        </mxCell>
        <mxCell id="I6zElXgZEDLd3gUoQ3DE-144" style="shape=partialRectangle;collapsible=0;dropTarget=0;pointerEvents=0;fillColor=none;points=[[0,0.5],[1,0.5]];portConstraint=eastwest;top=0;left=0;right=0;bottom=0;" parent="I6zElXgZEDLd3gUoQ3DE-116" vertex="1">
          <mxGeometry y="180" width="250" height="30" as="geometry" />
        </mxCell>
        <mxCell id="I6zElXgZEDLd3gUoQ3DE-145" style="shape=partialRectangle;overflow=hidden;connectable=0;fillColor=#b1ddf0;top=0;left=0;bottom=0;right=0;strokeColor=#10739e;" parent="I6zElXgZEDLd3gUoQ3DE-144" vertex="1">
          <mxGeometry width="30" height="30" as="geometry">
            <mxRectangle width="30" height="30" as="alternateBounds" />
          </mxGeometry>
        </mxCell>
        <mxCell id="I6zElXgZEDLd3gUoQ3DE-146" value="date_of_birth date NOT NULL" style="shape=partialRectangle;overflow=hidden;connectable=0;fillColor=#b1ddf0;top=0;left=0;bottom=0;right=0;align=left;spacingLeft=6;strokeColor=#10739e;" parent="I6zElXgZEDLd3gUoQ3DE-144" vertex="1">
          <mxGeometry x="30" width="220" height="30" as="geometry">
            <mxRectangle width="220" height="30" as="alternateBounds" />
          </mxGeometry>
        </mxCell>
        <mxCell id="I6zElXgZEDLd3gUoQ3DE-141" style="shape=partialRectangle;collapsible=0;dropTarget=0;pointerEvents=0;fillColor=none;points=[[0,0.5],[1,0.5]];portConstraint=eastwest;top=0;left=0;right=0;bottom=0;" parent="I6zElXgZEDLd3gUoQ3DE-116" vertex="1">
          <mxGeometry y="210" width="250" height="30" as="geometry" />
        </mxCell>
        <mxCell id="I6zElXgZEDLd3gUoQ3DE-142" style="shape=partialRectangle;overflow=hidden;connectable=0;fillColor=#b1ddf0;top=0;left=0;bottom=0;right=0;strokeColor=#10739e;" parent="I6zElXgZEDLd3gUoQ3DE-141" vertex="1">
          <mxGeometry width="30" height="30" as="geometry">
            <mxRectangle width="30" height="30" as="alternateBounds" />
          </mxGeometry>
        </mxCell>
        <mxCell id="I6zElXgZEDLd3gUoQ3DE-143" value="credit_card_number varchar(30)" style="shape=partialRectangle;overflow=hidden;connectable=0;fillColor=#b1ddf0;top=0;left=0;bottom=0;right=0;align=left;spacingLeft=6;strokeColor=#10739e;" parent="I6zElXgZEDLd3gUoQ3DE-141" vertex="1">
          <mxGeometry x="30" width="220" height="30" as="geometry">
            <mxRectangle width="220" height="30" as="alternateBounds" />
          </mxGeometry>
        </mxCell>
        <mxCell id="I6zElXgZEDLd3gUoQ3DE-135" style="shape=partialRectangle;collapsible=0;dropTarget=0;pointerEvents=0;fillColor=none;points=[[0,0.5],[1,0.5]];portConstraint=eastwest;top=0;left=0;right=0;bottom=0;" parent="I6zElXgZEDLd3gUoQ3DE-116" vertex="1">
          <mxGeometry y="240" width="250" height="30" as="geometry" />
        </mxCell>
        <mxCell id="I6zElXgZEDLd3gUoQ3DE-136" style="shape=partialRectangle;overflow=hidden;connectable=0;fillColor=#b1ddf0;top=0;left=0;bottom=0;right=0;strokeColor=#10739e;" parent="I6zElXgZEDLd3gUoQ3DE-135" vertex="1">
          <mxGeometry width="30" height="30" as="geometry">
            <mxRectangle width="30" height="30" as="alternateBounds" />
          </mxGeometry>
        </mxCell>
        <mxCell id="I6zElXgZEDLd3gUoQ3DE-137" value="address varchar(500)" style="shape=partialRectangle;overflow=hidden;connectable=0;fillColor=#b1ddf0;top=0;left=0;bottom=0;right=0;align=left;spacingLeft=6;strokeColor=#10739e;" parent="I6zElXgZEDLd3gUoQ3DE-135" vertex="1">
          <mxGeometry x="30" width="220" height="30" as="geometry">
            <mxRectangle width="220" height="30" as="alternateBounds" />
          </mxGeometry>
        </mxCell>
        <mxCell id="I6zElXgZEDLd3gUoQ3DE-132" style="shape=partialRectangle;collapsible=0;dropTarget=0;pointerEvents=0;fillColor=none;points=[[0,0.5],[1,0.5]];portConstraint=eastwest;top=0;left=0;right=0;bottom=0;" parent="I6zElXgZEDLd3gUoQ3DE-116" vertex="1">
          <mxGeometry y="270" width="250" height="30" as="geometry" />
        </mxCell>
        <mxCell id="I6zElXgZEDLd3gUoQ3DE-133" style="shape=partialRectangle;overflow=hidden;connectable=0;fillColor=#b1ddf0;top=0;left=0;bottom=0;right=0;strokeColor=#10739e;" parent="I6zElXgZEDLd3gUoQ3DE-132" vertex="1">
          <mxGeometry width="30" height="30" as="geometry">
            <mxRectangle width="30" height="30" as="alternateBounds" />
          </mxGeometry>
        </mxCell>
        <mxCell id="I6zElXgZEDLd3gUoQ3DE-134" value="state varchar(100)" style="shape=partialRectangle;overflow=hidden;connectable=0;fillColor=#b1ddf0;top=0;left=0;bottom=0;right=0;align=left;spacingLeft=6;strokeColor=#10739e;" parent="I6zElXgZEDLd3gUoQ3DE-132" vertex="1">
          <mxGeometry x="30" width="220" height="30" as="geometry">
            <mxRectangle width="220" height="30" as="alternateBounds" />
          </mxGeometry>
        </mxCell>
        <mxCell id="I6zElXgZEDLd3gUoQ3DE-150" style="shape=partialRectangle;collapsible=0;dropTarget=0;pointerEvents=0;fillColor=none;points=[[0,0.5],[1,0.5]];portConstraint=eastwest;top=0;left=0;right=0;bottom=0;" parent="I6zElXgZEDLd3gUoQ3DE-116" vertex="1">
          <mxGeometry y="300" width="250" height="30" as="geometry" />
        </mxCell>
        <mxCell id="I6zElXgZEDLd3gUoQ3DE-151" style="shape=partialRectangle;overflow=hidden;connectable=0;fillColor=#b1ddf0;top=0;left=0;bottom=0;right=0;strokeColor=#10739e;" parent="I6zElXgZEDLd3gUoQ3DE-150" vertex="1">
          <mxGeometry width="30" height="30" as="geometry">
            <mxRectangle width="30" height="30" as="alternateBounds" />
          </mxGeometry>
        </mxCell>
        <mxCell id="I6zElXgZEDLd3gUoQ3DE-152" value="city varchar(150)" style="shape=partialRectangle;overflow=hidden;connectable=0;fillColor=#b1ddf0;top=0;left=0;bottom=0;right=0;align=left;spacingLeft=6;strokeColor=#10739e;" parent="I6zElXgZEDLd3gUoQ3DE-150" vertex="1">
          <mxGeometry x="30" width="220" height="30" as="geometry">
            <mxRectangle width="220" height="30" as="alternateBounds" />
          </mxGeometry>
        </mxCell>
        <mxCell id="I6zElXgZEDLd3gUoQ3DE-153" value="" style="edgeStyle=elbowEdgeStyle;endArrow=ERzeroToMany;startArrow=ERone;endFill=1;startFill=0;entryX=0;entryY=0.5;entryDx=0;entryDy=0;" parent="1" source="I6zElXgZEDLd3gUoQ3DE-89" target="I6zElXgZEDLd3gUoQ3DE-126" edge="1">
          <mxGeometry width="100" height="100" relative="1" as="geometry">
            <mxPoint x="250" y="490" as="sourcePoint" />
            <mxPoint x="280" y="375" as="targetPoint" />
            <Array as="points">
              <mxPoint x="220" y="260" />
            </Array>
          </mxGeometry>
        </mxCell>
        <mxCell id="I6zElXgZEDLd3gUoQ3DE-154" value="" style="edgeStyle=elbowEdgeStyle;endArrow=ERzeroToMany;startArrow=ERone;endFill=1;startFill=0;exitX=0;exitY=0.5;exitDx=0;exitDy=0;" parent="1" source="I6zElXgZEDLd3gUoQ3DE-2" target="I6zElXgZEDLd3gUoQ3DE-123" edge="1">
          <mxGeometry width="100" height="100" relative="1" as="geometry">
            <mxPoint x="260" y="780" as="sourcePoint" />
            <mxPoint x="180" y="350" as="targetPoint" />
          </mxGeometry>
        </mxCell>
        <mxCell id="I6zElXgZEDLd3gUoQ3DE-157" value="PatientVisits" style="shape=table;startSize=30;container=1;collapsible=1;childLayout=tableLayout;fixedRows=1;rowLines=0;fontStyle=1;align=center;resizeLast=1;fillColor=#1ba1e2;fontColor=#ffffff;strokeColor=#006EAF;" parent="1" vertex="1">
          <mxGeometry x="298" y="665" width="250" height="270" as="geometry" />
        </mxCell>
        <mxCell id="I6zElXgZEDLd3gUoQ3DE-158" value="" style="shape=partialRectangle;collapsible=0;dropTarget=0;pointerEvents=0;fillColor=none;points=[[0,0.5],[1,0.5]];portConstraint=eastwest;top=0;left=0;right=0;bottom=1;" parent="I6zElXgZEDLd3gUoQ3DE-157" vertex="1">
          <mxGeometry y="30" width="250" height="30" as="geometry" />
        </mxCell>
        <mxCell id="I6zElXgZEDLd3gUoQ3DE-159" value="PK" style="shape=partialRectangle;overflow=hidden;connectable=0;fillColor=#b1ddf0;top=0;left=0;bottom=0;right=0;fontStyle=1;strokeColor=#10739e;" parent="I6zElXgZEDLd3gUoQ3DE-158" vertex="1">
          <mxGeometry width="30" height="30" as="geometry">
            <mxRectangle width="30" height="30" as="alternateBounds" />
          </mxGeometry>
        </mxCell>
        <mxCell id="I6zElXgZEDLd3gUoQ3DE-160" value="visit_id varchar(35) NOT NULL " style="shape=partialRectangle;overflow=hidden;connectable=0;fillColor=#b1ddf0;top=0;left=0;bottom=0;right=0;align=left;spacingLeft=6;fontStyle=5;strokeColor=#10739e;" parent="I6zElXgZEDLd3gUoQ3DE-158" vertex="1">
          <mxGeometry x="30" width="220" height="30" as="geometry">
            <mxRectangle width="220" height="30" as="alternateBounds" />
          </mxGeometry>
        </mxCell>
        <mxCell id="I6zElXgZEDLd3gUoQ3DE-161" value="" style="shape=partialRectangle;collapsible=0;dropTarget=0;pointerEvents=0;fillColor=none;points=[[0,0.5],[1,0.5]];portConstraint=eastwest;top=0;left=0;right=0;bottom=0;" parent="I6zElXgZEDLd3gUoQ3DE-157" vertex="1">
          <mxGeometry y="60" width="250" height="30" as="geometry" />
        </mxCell>
        <mxCell id="I6zElXgZEDLd3gUoQ3DE-162" value="FK1" style="shape=partialRectangle;overflow=hidden;connectable=0;fillColor=#b1ddf0;top=0;left=0;bottom=0;right=0;strokeColor=#10739e;" parent="I6zElXgZEDLd3gUoQ3DE-161" vertex="1">
          <mxGeometry width="30" height="30" as="geometry">
            <mxRectangle width="30" height="30" as="alternateBounds" />
          </mxGeometry>
        </mxCell>
        <mxCell id="I6zElXgZEDLd3gUoQ3DE-163" value="visit_pid varchar(30) NOT NULL" style="shape=partialRectangle;overflow=hidden;connectable=0;fillColor=#b1ddf0;top=0;left=0;bottom=0;right=0;align=left;spacingLeft=6;strokeColor=#10739e;" parent="I6zElXgZEDLd3gUoQ3DE-161" vertex="1">
          <mxGeometry x="30" width="220" height="30" as="geometry">
            <mxRectangle width="220" height="30" as="alternateBounds" />
          </mxGeometry>
        </mxCell>
        <mxCell id="I6zElXgZEDLd3gUoQ3DE-164" value="" style="shape=partialRectangle;collapsible=0;dropTarget=0;pointerEvents=0;fillColor=none;points=[[0,0.5],[1,0.5]];portConstraint=eastwest;top=0;left=0;right=0;bottom=0;" parent="I6zElXgZEDLd3gUoQ3DE-157" vertex="1">
          <mxGeometry y="90" width="250" height="30" as="geometry" />
        </mxCell>
        <mxCell id="I6zElXgZEDLd3gUoQ3DE-165" value="FK2" style="shape=partialRectangle;overflow=hidden;connectable=0;fillColor=#b1ddf0;top=0;left=0;bottom=0;right=0;strokeColor=#10739e;" parent="I6zElXgZEDLd3gUoQ3DE-164" vertex="1">
          <mxGeometry width="30" height="30" as="geometry">
            <mxRectangle width="30" height="30" as="alternateBounds" />
          </mxGeometry>
        </mxCell>
        <mxCell id="I6zElXgZEDLd3gUoQ3DE-166" value="procedure varchar(20)" style="shape=partialRectangle;overflow=hidden;connectable=0;fillColor=#b1ddf0;top=0;left=0;bottom=0;right=0;align=left;spacingLeft=6;strokeColor=#10739e;" parent="I6zElXgZEDLd3gUoQ3DE-164" vertex="1">
          <mxGeometry x="30" width="220" height="30" as="geometry">
            <mxRectangle width="220" height="30" as="alternateBounds" />
          </mxGeometry>
        </mxCell>
        <mxCell id="I6zElXgZEDLd3gUoQ3DE-167" style="shape=partialRectangle;collapsible=0;dropTarget=0;pointerEvents=0;fillColor=none;points=[[0,0.5],[1,0.5]];portConstraint=eastwest;top=0;left=0;right=0;bottom=0;" parent="I6zElXgZEDLd3gUoQ3DE-157" vertex="1">
          <mxGeometry y="120" width="250" height="30" as="geometry" />
        </mxCell>
        <mxCell id="I6zElXgZEDLd3gUoQ3DE-168" value="FK3" style="shape=partialRectangle;overflow=hidden;connectable=0;fillColor=#b1ddf0;top=0;left=0;bottom=0;right=0;strokeColor=#10739e;" parent="I6zElXgZEDLd3gUoQ3DE-167" vertex="1">
          <mxGeometry width="30" height="30" as="geometry">
            <mxRectangle width="30" height="30" as="alternateBounds" />
          </mxGeometry>
        </mxCell>
        <mxCell id="I6zElXgZEDLd3gUoQ3DE-169" value="visit_hid int NOT NULL" style="shape=partialRectangle;overflow=hidden;connectable=0;fillColor=#b1ddf0;top=0;left=0;bottom=0;right=0;align=left;spacingLeft=6;strokeColor=#10739e;" parent="I6zElXgZEDLd3gUoQ3DE-167" vertex="1">
          <mxGeometry x="30" width="220" height="30" as="geometry">
            <mxRectangle width="220" height="30" as="alternateBounds" />
          </mxGeometry>
        </mxCell>
        <mxCell id="I6zElXgZEDLd3gUoQ3DE-170" style="shape=partialRectangle;collapsible=0;dropTarget=0;pointerEvents=0;fillColor=none;points=[[0,0.5],[1,0.5]];portConstraint=eastwest;top=0;left=0;right=0;bottom=0;" parent="I6zElXgZEDLd3gUoQ3DE-157" vertex="1">
          <mxGeometry y="150" width="250" height="30" as="geometry" />
        </mxCell>
        <mxCell id="I6zElXgZEDLd3gUoQ3DE-171" style="shape=partialRectangle;overflow=hidden;connectable=0;fillColor=#b1ddf0;top=0;left=0;bottom=0;right=0;strokeColor=#10739e;" parent="I6zElXgZEDLd3gUoQ3DE-170" vertex="1">
          <mxGeometry width="30" height="30" as="geometry">
            <mxRectangle width="30" height="30" as="alternateBounds" />
          </mxGeometry>
        </mxCell>
        <mxCell id="I6zElXgZEDLd3gUoQ3DE-172" value="visit_date" style="shape=partialRectangle;overflow=hidden;connectable=0;fillColor=#b1ddf0;top=0;left=0;bottom=0;right=0;align=left;spacingLeft=6;strokeColor=#10739e;" parent="I6zElXgZEDLd3gUoQ3DE-170" vertex="1">
          <mxGeometry x="30" width="220" height="30" as="geometry">
            <mxRectangle width="220" height="30" as="alternateBounds" />
          </mxGeometry>
        </mxCell>
        <mxCell id="NK5w_5Fr2Y1bBtqfcdcF-17" style="shape=partialRectangle;collapsible=0;dropTarget=0;pointerEvents=0;fillColor=none;points=[[0,0.5],[1,0.5]];portConstraint=eastwest;top=0;left=0;right=0;bottom=0;" parent="I6zElXgZEDLd3gUoQ3DE-157" vertex="1">
          <mxGeometry y="180" width="250" height="30" as="geometry" />
        </mxCell>
        <mxCell id="NK5w_5Fr2Y1bBtqfcdcF-18" value="FK4" style="shape=partialRectangle;overflow=hidden;connectable=0;fillColor=#b1ddf0;top=0;left=0;bottom=0;right=0;strokeColor=#10739e;" parent="NK5w_5Fr2Y1bBtqfcdcF-17" vertex="1">
          <mxGeometry width="30" height="30" as="geometry">
            <mxRectangle width="30" height="30" as="alternateBounds" />
          </mxGeometry>
        </mxCell>
        <mxCell id="NK5w_5Fr2Y1bBtqfcdcF-19" value="procedure_by varchar(30)" style="shape=partialRectangle;overflow=hidden;connectable=0;fillColor=#b1ddf0;top=0;left=0;bottom=0;right=0;align=left;spacingLeft=6;strokeColor=#10739e;" parent="NK5w_5Fr2Y1bBtqfcdcF-17" vertex="1">
          <mxGeometry x="30" width="220" height="30" as="geometry">
            <mxRectangle width="220" height="30" as="alternateBounds" />
          </mxGeometry>
        </mxCell>
        <mxCell id="NK5w_5Fr2Y1bBtqfcdcF-38" style="shape=partialRectangle;collapsible=0;dropTarget=0;pointerEvents=0;fillColor=none;points=[[0,0.5],[1,0.5]];portConstraint=eastwest;top=0;left=0;right=0;bottom=0;" parent="I6zElXgZEDLd3gUoQ3DE-157" vertex="1">
          <mxGeometry y="210" width="250" height="30" as="geometry" />
        </mxCell>
        <mxCell id="NK5w_5Fr2Y1bBtqfcdcF-39" style="shape=partialRectangle;overflow=hidden;connectable=0;fillColor=#b1ddf0;top=0;left=0;bottom=0;right=0;strokeColor=#10739e;" parent="NK5w_5Fr2Y1bBtqfcdcF-38" vertex="1">
          <mxGeometry width="30" height="30" as="geometry">
            <mxRectangle width="30" height="30" as="alternateBounds" />
          </mxGeometry>
        </mxCell>
        <mxCell id="NK5w_5Fr2Y1bBtqfcdcF-40" value="rating int" style="shape=partialRectangle;overflow=hidden;connectable=0;fillColor=#b1ddf0;top=0;left=0;bottom=0;right=0;align=left;spacingLeft=6;strokeColor=#10739e;" parent="NK5w_5Fr2Y1bBtqfcdcF-38" vertex="1">
          <mxGeometry x="30" width="220" height="30" as="geometry">
            <mxRectangle width="220" height="30" as="alternateBounds" />
          </mxGeometry>
        </mxCell>
        <mxCell id="3wyf_OetN3ehaetAgEsu-2" style="shape=partialRectangle;collapsible=0;dropTarget=0;pointerEvents=0;fillColor=none;points=[[0,0.5],[1,0.5]];portConstraint=eastwest;top=0;left=0;right=0;bottom=0;" parent="I6zElXgZEDLd3gUoQ3DE-157" vertex="1">
          <mxGeometry y="240" width="250" height="30" as="geometry" />
        </mxCell>
        <mxCell id="3wyf_OetN3ehaetAgEsu-3" style="shape=partialRectangle;overflow=hidden;connectable=0;fillColor=#b1ddf0;top=0;left=0;bottom=0;right=0;strokeColor=#10739e;" parent="3wyf_OetN3ehaetAgEsu-2" vertex="1">
          <mxGeometry width="30" height="30" as="geometry">
            <mxRectangle width="30" height="30" as="alternateBounds" />
          </mxGeometry>
        </mxCell>
        <mxCell id="3wyf_OetN3ehaetAgEsu-4" value="payment Numeric" style="shape=partialRectangle;overflow=hidden;connectable=0;fillColor=#b1ddf0;top=0;left=0;bottom=0;right=0;align=left;spacingLeft=6;strokeColor=#10739e;" parent="3wyf_OetN3ehaetAgEsu-2" vertex="1">
          <mxGeometry x="30" width="220" height="30" as="geometry">
            <mxRectangle width="220" height="30" as="alternateBounds" />
          </mxGeometry>
        </mxCell>
        <mxCell id="I6zElXgZEDLd3gUoQ3DE-216" value="HealthFacilityLocations" style="shape=table;startSize=30;container=1;collapsible=1;childLayout=tableLayout;fixedRows=1;rowLines=0;fontStyle=1;align=center;resizeLast=1;fillColor=#1ba1e2;fontColor=#ffffff;strokeColor=#006EAF;" parent="1" vertex="1">
          <mxGeometry x="260" y="150" width="260" height="90" as="geometry" />
        </mxCell>
        <mxCell id="Lv4EZ6KkHFjrDI7zBbiF-2" style="shape=partialRectangle;collapsible=0;dropTarget=0;pointerEvents=0;fillColor=none;points=[[0,0.5],[1,0.5]];portConstraint=eastwest;top=0;left=0;right=0;bottom=1;" parent="I6zElXgZEDLd3gUoQ3DE-216" vertex="1">
          <mxGeometry y="30" width="260" height="30" as="geometry" />
        </mxCell>
        <mxCell id="Lv4EZ6KkHFjrDI7zBbiF-3" value="PK" style="shape=partialRectangle;overflow=hidden;connectable=0;fillColor=#b1ddf0;top=0;left=0;bottom=0;right=0;fontStyle=1;strokeColor=#10739e;" parent="Lv4EZ6KkHFjrDI7zBbiF-2" vertex="1">
          <mxGeometry width="30" height="30" as="geometry">
            <mxRectangle width="30" height="30" as="alternateBounds" />
          </mxGeometry>
        </mxCell>
        <mxCell id="Lv4EZ6KkHFjrDI7zBbiF-4" value="FK1" style="shape=partialRectangle;overflow=hidden;connectable=0;fillColor=#b1ddf0;top=0;left=0;bottom=0;right=0;align=left;spacingLeft=6;fontStyle=0;strokeColor=#10739e;" parent="Lv4EZ6KkHFjrDI7zBbiF-2" vertex="1">
          <mxGeometry x="30" width="40" height="30" as="geometry">
            <mxRectangle width="40" height="30" as="alternateBounds" />
          </mxGeometry>
        </mxCell>
        <mxCell id="Lv4EZ6KkHFjrDI7zBbiF-5" value="h_id int NOT NULL" style="shape=partialRectangle;overflow=hidden;connectable=0;fillColor=#b1ddf0;top=0;left=0;bottom=0;right=0;align=left;spacingLeft=6;fontStyle=5;strokeColor=#10739e;" parent="Lv4EZ6KkHFjrDI7zBbiF-2" vertex="1">
          <mxGeometry x="70" width="190" height="30" as="geometry">
            <mxRectangle width="190" height="30" as="alternateBounds" />
          </mxGeometry>
        </mxCell>
        <mxCell id="I6zElXgZEDLd3gUoQ3DE-217" value="" style="shape=partialRectangle;collapsible=0;dropTarget=0;pointerEvents=0;fillColor=none;points=[[0,0.5],[1,0.5]];portConstraint=eastwest;top=0;left=0;right=0;bottom=1;" parent="I6zElXgZEDLd3gUoQ3DE-216" vertex="1">
          <mxGeometry y="60" width="260" height="30" as="geometry" />
        </mxCell>
        <mxCell id="I6zElXgZEDLd3gUoQ3DE-218" value="PK" style="shape=partialRectangle;overflow=hidden;connectable=0;fillColor=#b1ddf0;top=0;left=0;bottom=0;right=0;fontStyle=1;strokeColor=#10739e;" parent="I6zElXgZEDLd3gUoQ3DE-217" vertex="1">
          <mxGeometry width="30" height="30" as="geometry">
            <mxRectangle width="30" height="30" as="alternateBounds" />
          </mxGeometry>
        </mxCell>
        <mxCell id="I6zElXgZEDLd3gUoQ3DE-242" value="FK2" style="shape=partialRectangle;overflow=hidden;connectable=0;fillColor=#b1ddf0;top=0;left=0;bottom=0;right=0;align=left;spacingLeft=6;fontStyle=0;strokeColor=#10739e;" parent="I6zElXgZEDLd3gUoQ3DE-217" vertex="1">
          <mxGeometry x="30" width="40" height="30" as="geometry">
            <mxRectangle width="40" height="30" as="alternateBounds" />
          </mxGeometry>
        </mxCell>
        <mxCell id="I6zElXgZEDLd3gUoQ3DE-219" value="location_id int NOT NULL " style="shape=partialRectangle;overflow=hidden;connectable=0;fillColor=#b1ddf0;top=0;left=0;bottom=0;right=0;align=left;spacingLeft=6;fontStyle=5;strokeColor=#10739e;" parent="I6zElXgZEDLd3gUoQ3DE-217" vertex="1">
          <mxGeometry x="70" width="190" height="30" as="geometry">
            <mxRectangle width="190" height="30" as="alternateBounds" />
          </mxGeometry>
        </mxCell>
        <mxCell id="I6zElXgZEDLd3gUoQ3DE-241" value="" style="edgeStyle=elbowEdgeStyle;endArrow=ERzeroToMany;startArrow=ERone;endFill=1;startFill=0;exitX=1;exitY=0.5;exitDx=0;exitDy=0;entryX=0;entryY=0.5;entryDx=0;entryDy=0;" parent="1" source="I6zElXgZEDLd3gUoQ3DE-27" target="I6zElXgZEDLd3gUoQ3DE-164" edge="1">
          <mxGeometry width="100" height="100" relative="1" as="geometry">
            <mxPoint x="170" y="400" as="sourcePoint" />
            <mxPoint x="230" y="830" as="targetPoint" />
            <Array as="points">
              <mxPoint x="180" y="600" />
            </Array>
          </mxGeometry>
        </mxCell>
        <mxCell id="I6zElXgZEDLd3gUoQ3DE-244" value="" style="edgeStyle=elbowEdgeStyle;endArrow=ERzeroToMany;startArrow=ERone;endFill=1;startFill=0;exitX=1;exitY=0.5;exitDx=0;exitDy=0;entryX=0;entryY=0.5;entryDx=0;entryDy=0;" parent="1" source="I6zElXgZEDLd3gUoQ3DE-89" target="Lv4EZ6KkHFjrDI7zBbiF-2" edge="1">
          <mxGeometry width="100" height="100" relative="1" as="geometry">
            <mxPoint x="190" y="90" as="sourcePoint" />
            <mxPoint x="260" y="480" as="targetPoint" />
            <Array as="points">
              <mxPoint x="240" y="150" />
            </Array>
          </mxGeometry>
        </mxCell>
        <mxCell id="I6zElXgZEDLd3gUoQ3DE-246" value="" style="edgeStyle=elbowEdgeStyle;endArrow=ERzeroToMany;startArrow=ERone;endFill=1;startFill=0;exitX=0;exitY=0.5;exitDx=0;exitDy=0;entryX=1;entryY=0.5;entryDx=0;entryDy=0;" parent="1" source="C-vyLk0tnHw3VtMMgP7b-3" target="I6zElXgZEDLd3gUoQ3DE-217" edge="1">
          <mxGeometry width="100" height="100" relative="1" as="geometry">
            <mxPoint x="660" y="270" as="sourcePoint" />
            <mxPoint x="440" y="300" as="targetPoint" />
          </mxGeometry>
        </mxCell>
        <mxCell id="I6zElXgZEDLd3gUoQ3DE-249" value="" style="edgeStyle=elbowEdgeStyle;endArrow=ERzeroToMany;startArrow=ERone;endFill=1;startFill=0;entryX=0;entryY=0.5;entryDx=0;entryDy=0;exitX=0;exitY=0.5;exitDx=0;exitDy=0;elbow=vertical;" parent="1" source="I6zElXgZEDLd3gUoQ3DE-117" target="I6zElXgZEDLd3gUoQ3DE-161" edge="1">
          <mxGeometry width="100" height="100" relative="1" as="geometry">
            <mxPoint x="110" y="370" as="sourcePoint" />
            <mxPoint x="-70" y="370" as="targetPoint" />
            <Array as="points">
              <mxPoint x="270" y="550" />
            </Array>
          </mxGeometry>
        </mxCell>
        <mxCell id="NK5w_5Fr2Y1bBtqfcdcF-1" value="Employees" style="shape=table;startSize=30;container=1;collapsible=1;childLayout=tableLayout;fixedRows=1;rowLines=0;fontStyle=1;align=center;resizeLast=1;fillColor=#1ba1e2;fontColor=#ffffff;strokeColor=#006EAF;" parent="1" vertex="1">
          <mxGeometry x="-110" y="600" width="250" height="300" as="geometry" />
        </mxCell>
        <mxCell id="NK5w_5Fr2Y1bBtqfcdcF-2" value="" style="shape=partialRectangle;collapsible=0;dropTarget=0;pointerEvents=0;fillColor=none;points=[[0,0.5],[1,0.5]];portConstraint=eastwest;top=0;left=0;right=0;bottom=1;" parent="NK5w_5Fr2Y1bBtqfcdcF-1" vertex="1">
          <mxGeometry y="30" width="250" height="30" as="geometry" />
        </mxCell>
        <mxCell id="NK5w_5Fr2Y1bBtqfcdcF-3" value="PK" style="shape=partialRectangle;overflow=hidden;connectable=0;fillColor=#b1ddf0;top=0;left=0;bottom=0;right=0;fontStyle=1;strokeColor=#10739e;" parent="NK5w_5Fr2Y1bBtqfcdcF-2" vertex="1">
          <mxGeometry width="30" height="30" as="geometry">
            <mxRectangle width="30" height="30" as="alternateBounds" />
          </mxGeometry>
        </mxCell>
        <mxCell id="NK5w_5Fr2Y1bBtqfcdcF-4" value="emp_id varchar(30) NOT NULL " style="shape=partialRectangle;overflow=hidden;connectable=0;fillColor=#b1ddf0;top=0;left=0;bottom=0;right=0;align=left;spacingLeft=6;fontStyle=5;strokeColor=#10739e;" parent="NK5w_5Fr2Y1bBtqfcdcF-2" vertex="1">
          <mxGeometry x="30" width="220" height="30" as="geometry">
            <mxRectangle width="220" height="30" as="alternateBounds" />
          </mxGeometry>
        </mxCell>
        <mxCell id="NK5w_5Fr2Y1bBtqfcdcF-5" value="" style="shape=partialRectangle;collapsible=0;dropTarget=0;pointerEvents=0;fillColor=none;points=[[0,0.5],[1,0.5]];portConstraint=eastwest;top=0;left=0;right=0;bottom=0;" parent="NK5w_5Fr2Y1bBtqfcdcF-1" vertex="1">
          <mxGeometry y="60" width="250" height="30" as="geometry" />
        </mxCell>
        <mxCell id="NK5w_5Fr2Y1bBtqfcdcF-6" value="" style="shape=partialRectangle;overflow=hidden;connectable=0;fillColor=#b1ddf0;top=0;left=0;bottom=0;right=0;strokeColor=#10739e;" parent="NK5w_5Fr2Y1bBtqfcdcF-5" vertex="1">
          <mxGeometry width="30" height="30" as="geometry">
            <mxRectangle width="30" height="30" as="alternateBounds" />
          </mxGeometry>
        </mxCell>
        <mxCell id="NK5w_5Fr2Y1bBtqfcdcF-7" value="emp_name varchar(150) NOT NULL" style="shape=partialRectangle;overflow=hidden;connectable=0;fillColor=#b1ddf0;top=0;left=0;bottom=0;right=0;align=left;spacingLeft=6;strokeColor=#10739e;" parent="NK5w_5Fr2Y1bBtqfcdcF-5" vertex="1">
          <mxGeometry x="30" width="220" height="30" as="geometry">
            <mxRectangle width="220" height="30" as="alternateBounds" />
          </mxGeometry>
        </mxCell>
        <mxCell id="NK5w_5Fr2Y1bBtqfcdcF-8" value="" style="shape=partialRectangle;collapsible=0;dropTarget=0;pointerEvents=0;fillColor=none;points=[[0,0.5],[1,0.5]];portConstraint=eastwest;top=0;left=0;right=0;bottom=0;" parent="NK5w_5Fr2Y1bBtqfcdcF-1" vertex="1">
          <mxGeometry y="90" width="250" height="30" as="geometry" />
        </mxCell>
        <mxCell id="NK5w_5Fr2Y1bBtqfcdcF-9" value="" style="shape=partialRectangle;overflow=hidden;connectable=0;fillColor=#b1ddf0;top=0;left=0;bottom=0;right=0;strokeColor=#10739e;" parent="NK5w_5Fr2Y1bBtqfcdcF-8" vertex="1">
          <mxGeometry width="30" height="30" as="geometry">
            <mxRectangle width="30" height="30" as="alternateBounds" />
          </mxGeometry>
        </mxCell>
        <mxCell id="NK5w_5Fr2Y1bBtqfcdcF-10" value="emp_dob DATE" style="shape=partialRectangle;overflow=hidden;connectable=0;fillColor=#b1ddf0;top=0;left=0;bottom=0;right=0;align=left;spacingLeft=6;strokeColor=#10739e;" parent="NK5w_5Fr2Y1bBtqfcdcF-8" vertex="1">
          <mxGeometry x="30" width="220" height="30" as="geometry">
            <mxRectangle width="220" height="30" as="alternateBounds" />
          </mxGeometry>
        </mxCell>
        <mxCell id="NK5w_5Fr2Y1bBtqfcdcF-11" style="shape=partialRectangle;collapsible=0;dropTarget=0;pointerEvents=0;fillColor=none;points=[[0,0.5],[1,0.5]];portConstraint=eastwest;top=0;left=0;right=0;bottom=0;" parent="NK5w_5Fr2Y1bBtqfcdcF-1" vertex="1">
          <mxGeometry y="120" width="250" height="30" as="geometry" />
        </mxCell>
        <mxCell id="NK5w_5Fr2Y1bBtqfcdcF-12" value="" style="shape=partialRectangle;overflow=hidden;connectable=0;fillColor=#b1ddf0;top=0;left=0;bottom=0;right=0;strokeColor=#10739e;" parent="NK5w_5Fr2Y1bBtqfcdcF-11" vertex="1">
          <mxGeometry width="30" height="30" as="geometry">
            <mxRectangle width="30" height="30" as="alternateBounds" />
          </mxGeometry>
        </mxCell>
        <mxCell id="NK5w_5Fr2Y1bBtqfcdcF-13" value="emp_date_entry DATE NOT NULL" style="shape=partialRectangle;overflow=hidden;connectable=0;fillColor=#b1ddf0;top=0;left=0;bottom=0;right=0;align=left;spacingLeft=6;strokeColor=#10739e;" parent="NK5w_5Fr2Y1bBtqfcdcF-11" vertex="1">
          <mxGeometry x="30" width="220" height="30" as="geometry">
            <mxRectangle width="220" height="30" as="alternateBounds" />
          </mxGeometry>
        </mxCell>
        <mxCell id="NK5w_5Fr2Y1bBtqfcdcF-14" style="shape=partialRectangle;collapsible=0;dropTarget=0;pointerEvents=0;fillColor=none;points=[[0,0.5],[1,0.5]];portConstraint=eastwest;top=0;left=0;right=0;bottom=0;" parent="NK5w_5Fr2Y1bBtqfcdcF-1" vertex="1">
          <mxGeometry y="150" width="250" height="30" as="geometry" />
        </mxCell>
        <mxCell id="NK5w_5Fr2Y1bBtqfcdcF-15" value="FK1" style="shape=partialRectangle;overflow=hidden;connectable=0;fillColor=#b1ddf0;top=0;left=0;bottom=0;right=0;strokeColor=#10739e;" parent="NK5w_5Fr2Y1bBtqfcdcF-14" vertex="1">
          <mxGeometry width="30" height="30" as="geometry">
            <mxRectangle width="30" height="30" as="alternateBounds" />
          </mxGeometry>
        </mxCell>
        <mxCell id="NK5w_5Fr2Y1bBtqfcdcF-16" value="emp_hid INT NOT NULL" style="shape=partialRectangle;overflow=hidden;connectable=0;fillColor=#b1ddf0;top=0;left=0;bottom=0;right=0;align=left;spacingLeft=6;strokeColor=#10739e;" parent="NK5w_5Fr2Y1bBtqfcdcF-14" vertex="1">
          <mxGeometry x="30" width="220" height="30" as="geometry">
            <mxRectangle width="220" height="30" as="alternateBounds" />
          </mxGeometry>
        </mxCell>
        <mxCell id="NK5w_5Fr2Y1bBtqfcdcF-27" style="shape=partialRectangle;collapsible=0;dropTarget=0;pointerEvents=0;fillColor=none;points=[[0,0.5],[1,0.5]];portConstraint=eastwest;top=0;left=0;right=0;bottom=0;" parent="NK5w_5Fr2Y1bBtqfcdcF-1" vertex="1">
          <mxGeometry y="180" width="250" height="30" as="geometry" />
        </mxCell>
        <mxCell id="NK5w_5Fr2Y1bBtqfcdcF-28" style="shape=partialRectangle;overflow=hidden;connectable=0;fillColor=#b1ddf0;top=0;left=0;bottom=0;right=0;strokeColor=#10739e;" parent="NK5w_5Fr2Y1bBtqfcdcF-27" vertex="1">
          <mxGeometry width="30" height="30" as="geometry">
            <mxRectangle width="30" height="30" as="alternateBounds" />
          </mxGeometry>
        </mxCell>
        <mxCell id="NK5w_5Fr2Y1bBtqfcdcF-29" value="building char(1) NOT NULL" style="shape=partialRectangle;overflow=hidden;connectable=0;fillColor=#b1ddf0;top=0;left=0;bottom=0;right=0;align=left;spacingLeft=6;strokeColor=#10739e;" parent="NK5w_5Fr2Y1bBtqfcdcF-27" vertex="1">
          <mxGeometry x="30" width="220" height="30" as="geometry">
            <mxRectangle width="220" height="30" as="alternateBounds" />
          </mxGeometry>
        </mxCell>
        <mxCell id="NK5w_5Fr2Y1bBtqfcdcF-24" style="shape=partialRectangle;collapsible=0;dropTarget=0;pointerEvents=0;fillColor=none;points=[[0,0.5],[1,0.5]];portConstraint=eastwest;top=0;left=0;right=0;bottom=0;" parent="NK5w_5Fr2Y1bBtqfcdcF-1" vertex="1">
          <mxGeometry y="210" width="250" height="30" as="geometry" />
        </mxCell>
        <mxCell id="NK5w_5Fr2Y1bBtqfcdcF-25" style="shape=partialRectangle;overflow=hidden;connectable=0;fillColor=#b1ddf0;top=0;left=0;bottom=0;right=0;strokeColor=#10739e;" parent="NK5w_5Fr2Y1bBtqfcdcF-24" vertex="1">
          <mxGeometry width="30" height="30" as="geometry">
            <mxRectangle width="30" height="30" as="alternateBounds" />
          </mxGeometry>
        </mxCell>
        <mxCell id="NK5w_5Fr2Y1bBtqfcdcF-26" value="emp_salary Numeric" style="shape=partialRectangle;overflow=hidden;connectable=0;fillColor=#b1ddf0;top=0;left=0;bottom=0;right=0;align=left;spacingLeft=6;strokeColor=#10739e;" parent="NK5w_5Fr2Y1bBtqfcdcF-24" vertex="1">
          <mxGeometry x="30" width="220" height="30" as="geometry">
            <mxRectangle width="220" height="30" as="alternateBounds" />
          </mxGeometry>
        </mxCell>
        <mxCell id="NK5w_5Fr2Y1bBtqfcdcF-21" style="shape=partialRectangle;collapsible=0;dropTarget=0;pointerEvents=0;fillColor=none;points=[[0,0.5],[1,0.5]];portConstraint=eastwest;top=0;left=0;right=0;bottom=0;" parent="NK5w_5Fr2Y1bBtqfcdcF-1" vertex="1">
          <mxGeometry y="240" width="250" height="30" as="geometry" />
        </mxCell>
        <mxCell id="NK5w_5Fr2Y1bBtqfcdcF-22" style="shape=partialRectangle;overflow=hidden;connectable=0;fillColor=#b1ddf0;top=0;left=0;bottom=0;right=0;strokeColor=#10739e;" parent="NK5w_5Fr2Y1bBtqfcdcF-21" vertex="1">
          <mxGeometry width="30" height="30" as="geometry">
            <mxRectangle width="30" height="30" as="alternateBounds" />
          </mxGeometry>
        </mxCell>
        <mxCell id="NK5w_5Fr2Y1bBtqfcdcF-23" value="section varchar(100)Â  NOT NULL" style="shape=partialRectangle;overflow=hidden;connectable=0;fillColor=#b1ddf0;top=0;left=0;bottom=0;right=0;align=left;spacingLeft=6;strokeColor=#10739e;" parent="NK5w_5Fr2Y1bBtqfcdcF-21" vertex="1">
          <mxGeometry x="30" width="220" height="30" as="geometry">
            <mxRectangle width="220" height="30" as="alternateBounds" />
          </mxGeometry>
        </mxCell>
        <mxCell id="NK5w_5Fr2Y1bBtqfcdcF-33" style="shape=partialRectangle;collapsible=0;dropTarget=0;pointerEvents=0;fillColor=none;points=[[0,0.5],[1,0.5]];portConstraint=eastwest;top=0;left=0;right=0;bottom=0;" parent="NK5w_5Fr2Y1bBtqfcdcF-1" vertex="1">
          <mxGeometry y="270" width="250" height="30" as="geometry" />
        </mxCell>
        <mxCell id="NK5w_5Fr2Y1bBtqfcdcF-34" style="shape=partialRectangle;overflow=hidden;connectable=0;fillColor=#b1ddf0;top=0;left=0;bottom=0;right=0;strokeColor=#10739e;" parent="NK5w_5Fr2Y1bBtqfcdcF-33" vertex="1">
          <mxGeometry width="30" height="30" as="geometry">
            <mxRectangle width="30" height="30" as="alternateBounds" />
          </mxGeometry>
        </mxCell>
        <mxCell id="NK5w_5Fr2Y1bBtqfcdcF-35" value="specialty varchar(300) NOT NULL" style="shape=partialRectangle;overflow=hidden;connectable=0;fillColor=#b1ddf0;top=0;left=0;bottom=0;right=0;align=left;spacingLeft=6;strokeColor=#10739e;" parent="NK5w_5Fr2Y1bBtqfcdcF-33" vertex="1">
          <mxGeometry x="30" width="220" height="30" as="geometry">
            <mxRectangle width="220" height="30" as="alternateBounds" />
          </mxGeometry>
        </mxCell>
        <mxCell id="NK5w_5Fr2Y1bBtqfcdcF-20" value="" style="edgeStyle=orthogonalEdgeStyle;endArrow=ERzeroToMany;startArrow=ERone;endFill=1;startFill=0;entryX=0;entryY=0.5;entryDx=0;entryDy=0;exitX=0;exitY=0.5;exitDx=0;exitDy=0;elbow=vertical;" parent="1" source="NK5w_5Fr2Y1bBtqfcdcF-2" target="NK5w_5Fr2Y1bBtqfcdcF-17" edge="1">
          <mxGeometry width="100" height="100" relative="1" as="geometry">
            <mxPoint x="600" y="420" as="sourcePoint" />
            <mxPoint x="610" y="830" as="targetPoint" />
            <Array as="points">
              <mxPoint x="-130" y="645" />
              <mxPoint x="-130" y="920" />
              <mxPoint x="200" y="920" />
              <mxPoint x="200" y="875" />
            </Array>
          </mxGeometry>
        </mxCell>
        <mxCell id="NK5w_5Fr2Y1bBtqfcdcF-37" value="" style="edgeStyle=elbowEdgeStyle;endArrow=ERzeroToMany;startArrow=ERone;endFill=1;startFill=0;exitX=0;exitY=0.5;exitDx=0;exitDy=0;entryX=0;entryY=0.5;entryDx=0;entryDy=0;" parent="1" source="I6zElXgZEDLd3gUoQ3DE-89" target="NK5w_5Fr2Y1bBtqfcdcF-14" edge="1">
          <mxGeometry width="100" height="100" relative="1" as="geometry">
            <mxPoint x="-350" y="400" as="sourcePoint" />
            <mxPoint x="-170" y="760" as="targetPoint" />
            <Array as="points">
              <mxPoint x="-220" y="430" />
            </Array>
          </mxGeometry>
        </mxCell>
        <mxCell id="3wyf_OetN3ehaetAgEsu-1" value="" style="edgeStyle=elbowEdgeStyle;endArrow=ERzeroToMany;startArrow=ERone;endFill=1;startFill=0;exitX=1;exitY=0.5;exitDx=0;exitDy=0;entryX=0;entryY=0.5;entryDx=0;entryDy=0;" parent="1" source="I6zElXgZEDLd3gUoQ3DE-89" target="I6zElXgZEDLd3gUoQ3DE-167" edge="1">
          <mxGeometry width="100" height="100" relative="1" as="geometry">
            <mxPoint x="130" y="490" as="sourcePoint" />
            <mxPoint x="310" y="850" as="targetPoint" />
            <Array as="points">
              <mxPoint x="200" y="450" />
            </Array>
          </mxGeometry>
        </mxCell>
      </root>
    </mxGraphModel>
  </diagram>
</mxfile>
